<svg width="21" height="21" viewBox="0 0 21 21" fill="none" xmlns="http://www.w3.org/2000/svg">
<path d="M19.8438 0C20.1563 0 20.4242 0.111607 20.6474 0.334821C20.8706 0.558035 20.9822 0.825892 20.9822 1.13839V19.433C20.9822 19.7455 20.8706 20.0134 20.6474 20.2366C20.4242 20.4598 20.1563 20.5714 19.8438 20.5714H14.6072V12.6027H17.2724L17.6742 9.49554H14.6072V7.51339C14.6072 7.01339 14.7099 6.63839 14.9152 6.38839C15.1295 6.13839 15.5402 6.01339 16.1474 6.01339L17.7813 6V3.22768C17.2188 3.14732 16.4242 3.10714 15.3974 3.10714C14.1831 3.10714 13.2099 3.46429 12.4777 4.17857C11.7545 4.89286 11.3929 5.90179 11.3929 7.20536V9.49554H8.71434V12.6027H11.3929V20.5714H1.54916C1.23666 20.5714 0.968802 20.4598 0.745588 20.2366C0.522374 20.0134 0.410767 19.7455 0.410767 19.433V1.13839C0.410767 0.825892 0.522374 0.558035 0.745588 0.334821C0.968802 0.111607 1.23666 0 1.54916 0H19.8438Z" fill="white"/>
</svg>
