<svg width="21" height="21" viewBox="0 0 21 21" fill="none" xmlns="http://www.w3.org/2000/svg">
<path d="M13.1206 12.7098C13.7902 12.0402 14.1251 11.2321 14.1251 10.2857C14.1251 9.33929 13.7902 8.53125 13.1206 7.86161C12.4509 7.19196 11.6429 6.85714 10.6965 6.85714C9.75005 6.85714 8.94202 7.19196 8.27237 7.86161C7.60273 8.53125 7.26791 9.33929 7.26791 10.2857C7.26791 11.2321 7.60273 12.0402 8.27237 12.7098C8.94202 13.3795 9.75005 13.7143 10.6965 13.7143C11.6429 13.7143 12.4509 13.3795 13.1206 12.7098ZM14.4331 6.54911C15.4599 7.57589 15.9733 8.82143 15.9733 10.2857C15.9733 11.75 15.4599 12.9955 14.4331 14.0223C13.4063 15.0491 12.1608 15.5625 10.6965 15.5625C9.2322 15.5625 7.98666 15.0491 6.95987 14.0223C5.93309 12.9955 5.4197 11.75 5.4197 10.2857C5.4197 8.82143 5.93309 7.57589 6.95987 6.54911C7.98666 5.52232 9.2322 5.00893 10.6965 5.00893C12.1608 5.00893 13.4063 5.52232 14.4331 6.54911ZM17.0581 3.92411C17.2992 4.16518 17.4197 4.45536 17.4197 4.79464C17.4197 5.13393 17.2992 5.42411 17.0581 5.66518C16.817 5.90625 16.5268 6.02679 16.1876 6.02679C15.8483 6.02679 15.5581 5.90625 15.317 5.66518C15.0759 5.42411 14.9554 5.13393 14.9554 4.79464C14.9554 4.45536 15.0759 4.16518 15.317 3.92411C15.5581 3.68304 15.8483 3.5625 16.1876 3.5625C16.5268 3.5625 16.817 3.68304 17.0581 3.92411ZM11.7143 1.84822C11.0983 1.84822 10.759 1.84822 10.6965 1.84822C10.634 1.84822 10.2902 1.84822 9.66523 1.84822C9.04916 1.83929 8.58041 1.83929 8.25898 1.84822C7.93755 1.84822 7.50452 1.86161 6.95987 1.88839C6.42416 1.90625 5.96434 1.95089 5.58041 2.02232C5.20541 2.08482 4.88845 2.16518 4.62952 2.26339C4.18309 2.44196 3.79023 2.70089 3.45095 3.04018C3.11166 3.37946 2.85273 3.77232 2.67416 4.21875C2.57595 4.47768 2.49112 4.79911 2.4197 5.18304C2.3572 5.55804 2.31255 6.01786 2.28577 6.5625C2.26791 7.09822 2.25452 7.52679 2.24559 7.84822C2.24559 8.16964 2.24559 8.64286 2.24559 9.26786C2.25452 9.88393 2.25898 10.2232 2.25898 10.2857C2.25898 10.3482 2.25452 10.692 2.24559 11.317C2.24559 11.933 2.24559 12.4018 2.24559 12.7232C2.25452 13.0446 2.26791 13.4777 2.28577 14.0223C2.31255 14.558 2.3572 15.0179 2.4197 15.4018C2.49112 15.7768 2.57595 16.0938 2.67416 16.3527C2.85273 16.7991 3.11166 17.192 3.45095 17.5312C3.79023 17.8705 4.18309 18.1295 4.62952 18.308C4.88845 18.4063 5.20541 18.4911 5.58041 18.5625C5.96434 18.625 6.42416 18.6696 6.95987 18.6964C7.50452 18.7143 7.93755 18.7277 8.25898 18.7366C8.58041 18.7366 9.04916 18.7366 9.66523 18.7366C10.2902 18.7277 10.634 18.7232 10.6965 18.7232C10.759 18.7232 11.0983 18.7277 11.7143 18.7366C12.3393 18.7366 12.8126 18.7366 13.134 18.7366C13.4554 18.7277 13.884 18.7143 14.4197 18.6964C14.9643 18.6696 15.4242 18.625 15.7992 18.5625C16.1831 18.4911 16.5045 18.4063 16.7634 18.308C17.2099 18.1295 17.6027 17.8705 17.942 17.5312C18.2813 17.192 18.5402 16.7991 18.7188 16.3527C18.817 16.0938 18.8974 15.7768 18.9599 15.4018C19.0313 15.0179 19.0759 14.558 19.0938 14.0223C19.1206 13.4777 19.134 13.0446 19.134 12.7232C19.1429 12.4018 19.1429 11.933 19.134 11.317C19.134 10.692 19.134 10.3482 19.134 10.2857C19.134 10.2232 19.134 9.88393 19.134 9.26786C19.1429 8.64286 19.1429 8.16964 19.134 7.84822C19.134 7.52679 19.1206 7.09822 19.0938 6.5625C19.0759 6.01786 19.0313 5.55804 18.9599 5.18304C18.8974 4.79911 18.817 4.47768 18.7188 4.21875C18.5402 3.77232 18.2813 3.37946 17.942 3.04018C17.6027 2.70089 17.2099 2.44196 16.7634 2.26339C16.5045 2.16518 16.1831 2.08482 15.7992 2.02232C15.4242 1.95089 14.9643 1.90625 14.4197 1.88839C13.884 1.86161 13.4554 1.84822 13.134 1.84822C12.8126 1.83929 12.3393 1.83929 11.7143 1.84822ZM20.9152 6.04018C20.9599 6.82589 20.9822 8.24107 20.9822 10.2857C20.9822 12.3304 20.9599 13.7455 20.9152 14.5312C20.8259 16.3884 20.2724 17.8259 19.2545 18.8438C18.2367 19.8616 16.7992 20.4152 14.942 20.5045C14.1563 20.5491 12.7411 20.5714 10.6965 20.5714C8.65184 20.5714 7.23666 20.5491 6.45095 20.5045C4.5938 20.4152 3.1563 19.8616 2.13845 18.8438C1.12059 17.8259 0.567017 16.3884 0.477731 14.5312C0.433088 13.7455 0.410767 12.3304 0.410767 10.2857C0.410767 8.24107 0.433088 6.82589 0.477731 6.04018C0.567017 4.18304 1.12059 2.74554 2.13845 1.72768C3.1563 0.709821 4.5938 0.15625 6.45095 0.0669651C7.23666 0.0223217 8.65184 0 10.6965 0C12.7411 0 14.1563 0.0223217 14.942 0.0669651C16.7992 0.15625 18.2367 0.709821 19.2545 1.72768C20.2724 2.74554 20.8259 4.18304 20.9152 6.04018Z" fill="white"/>
</svg>
