<svg width="20" height="17" viewBox="0 0 20 17" fill="none" xmlns="http://www.w3.org/2000/svg">
<path d="M19 4H5.462L3.91 0.586C3.83054 0.411298 3.70249 0.263151 3.54113 0.159242C3.37977 0.0553333 3.19192 5.31428e-05 3 0H0V2H2.356L7.09 12.414C7.16946 12.5887 7.29751 12.7368 7.45887 12.8408C7.62023 12.9447 7.80808 12.9999 8 13H16C16.4 13 16.762 12.762 16.919 12.394L19.919 5.394C19.9847 5.24194 20.0116 5.0759 19.9971 4.91087C19.9827 4.74584 19.9273 4.587 19.8362 4.44869C19.745 4.31038 19.6208 4.19694 19.4748 4.11861C19.3288 4.04027 19.1657 3.99951 19 4Z" fill="black"/>
<path d="M8.5 17C9.32843 17 10 16.3284 10 15.5C10 14.6716 9.32843 14 8.5 14C7.67157 14 7 14.6716 7 15.5C7 16.3284 7.67157 17 8.5 17Z" fill="black"/>
<path d="M15.5 17C16.3284 17 17 16.3284 17 15.5C17 14.6716 16.3284 14 15.5 14C14.6716 14 14 14.6716 14 15.5C14 16.3284 14.6716 17 15.5 17Z" fill="black"/>
</svg>
