<svg width="25" height="18" viewBox="0 0 25 18" fill="none" xmlns="http://www.w3.org/2000/svg">
<path d="M9.93303 12.3928L16.4152 9.04457L9.93303 5.65618V12.3928ZM12.4107 0.848145C13.9107 0.848145 15.3571 0.870466 16.75 0.915108C18.1518 0.950822 19.1786 0.991001 19.8303 1.03564L20.808 1.08922C20.817 1.08922 20.8928 1.09814 21.0357 1.116C21.1786 1.12493 21.2812 1.13832 21.3437 1.15618C21.4062 1.16511 21.5089 1.18296 21.6518 1.20975C21.8036 1.23654 21.933 1.27225 22.0402 1.31689C22.1473 1.36154 22.2723 1.41957 22.4152 1.491C22.558 1.56243 22.6964 1.65172 22.8303 1.75886C22.9643 1.85707 23.0937 1.97314 23.2187 2.10707C23.2723 2.16064 23.3393 2.24547 23.4196 2.36154C23.5089 2.46868 23.6384 2.72761 23.808 3.13832C23.9866 3.54904 24.1071 3.99993 24.1696 4.491C24.2411 5.06243 24.2946 5.67404 24.3303 6.32582C24.375 6.96868 24.4018 7.47314 24.4107 7.83922V8.37493V10.1964C24.4196 11.491 24.3393 12.7856 24.1696 14.0803C24.1071 14.5714 23.9955 15.0178 23.8348 15.4196C23.6741 15.8124 23.5312 16.0848 23.4062 16.2365L23.2187 16.4642C23.0937 16.5981 22.9643 16.7187 22.8303 16.8258C22.6964 16.924 22.558 17.0089 22.4152 17.0803C22.2723 17.1428 22.1473 17.1964 22.0402 17.241C21.933 17.2856 21.8036 17.3214 21.6518 17.3481C21.5089 17.3749 21.4018 17.3973 21.3303 17.4151C21.2678 17.424 21.1652 17.4374 21.0223 17.4553C20.8884 17.4642 20.817 17.4687 20.808 17.4687C18.567 17.6383 15.7678 17.7231 12.4107 17.7231C10.5625 17.7053 8.95535 17.6785 7.58928 17.6428C6.23213 17.5981 5.33928 17.5624 4.9107 17.5356L4.25445 17.4821L3.77231 17.4285C3.45088 17.3839 3.20535 17.3392 3.0357 17.2946C2.87499 17.2499 2.64731 17.1562 2.35267 17.0133C2.06695 16.8705 1.81695 16.6874 1.60267 16.4642C1.5491 16.4106 1.47767 16.3303 1.38838 16.2231C1.30803 16.1071 1.17856 15.8437 0.99999 15.433C0.830347 15.0223 0.714275 14.5714 0.651775 14.0803C0.580347 13.5089 0.522311 12.9017 0.477668 12.2589C0.441954 11.6071 0.419632 11.0981 0.410704 10.7321V10.1964V8.37493C0.401775 7.08029 0.482132 5.78564 0.651775 4.491C0.714275 3.99993 0.825882 3.55797 0.986597 3.16511C1.14731 2.76332 1.29017 2.48654 1.41517 2.33475L1.60267 2.10707C1.72767 1.97314 1.85713 1.85707 1.99106 1.75886C2.12499 1.65172 2.26338 1.56243 2.40624 1.491C2.5491 1.41957 2.6741 1.36154 2.78124 1.31689C2.88838 1.27225 3.01338 1.23654 3.15624 1.20975C3.30803 1.18296 3.41517 1.16511 3.47767 1.15618C3.54017 1.13832 3.64285 1.12493 3.7857 1.116C3.92856 1.09814 4.00445 1.08922 4.01338 1.08922C6.25445 0.928502 9.05356 0.848145 12.4107 0.848145Z" fill="white"/>
</svg>
